<?xml version="1.0" encoding="utf-8"?>
<!-- Generator: Adobe Illustrator 17.0.0, SVG Export Plug-In . SVG Version: 6.00 Build 0)  -->
<!DOCTYPE svg PUBLIC "-//W3C//DTD SVG 1.1//EN" "http://www.w3.org/Graphics/SVG/1.1/DTD/svg11.dtd">
<svg version="1.1" id="Capa_1" xmlns="http://www.w3.org/2000/svg" xmlns:xlink="http://www.w3.org/1999/xlink" x="0px" y="0px"
	 width="300px" height="300px" viewBox="0 0 300 300" enable-background="new 0 0 300 300" xml:space="preserve">
<g>
	<path fill="#FFFFFF" d="M256.149,116.234c-28.554-28.407-64.569-43.422-104.152-43.422c-40.177,0-77.804,15.421-105.95,43.422
		C17.24,144.891,1.375,182.478,1.375,222.071v5.116h14.667v-5.115c0-35.514,14.299-69.254,40.262-95.006
		c24.782-24.579,59.598-38.676,95.522-38.676c35.457,0,68.833,13.735,93.979,38.676c24.603,24.402,38.153,58.143,38.153,95.006
		v5.115h14.667v-5.116C298.625,181.07,283.54,143.482,256.149,116.234z"/>
	<path fill="#FFFFFF" d="M211.372,156.747l-45.945,3.347l17.485,16.136l-24.056,31.942l-41.746-50.616l18.922-17.463l-45.944-3.347
		l-0.344,46.064l17.126-15.805l46.868,56.828c0.022,0.026,0.047,0.049,0.069,0.075c0.098,0.115,0.203,0.225,0.309,0.335
		c0.068,0.07,0.133,0.142,0.203,0.208c0.101,0.096,0.21,0.185,0.317,0.275c0.084,0.071,0.165,0.145,0.252,0.211
		c0.01,0.008,0.019,0.017,0.03,0.025c0.024,0.018,0.052,0.03,0.076,0.048c0.243,0.179,0.498,0.338,0.762,0.483
		c0.071,0.039,0.14,0.078,0.212,0.115c0.29,0.147,0.588,0.279,0.897,0.383c0.05,0.017,0.103,0.027,0.154,0.043
		c0.264,0.083,0.533,0.148,0.807,0.199c0.096,0.018,0.192,0.034,0.289,0.048c0.319,0.046,0.642,0.077,0.97,0.078
		c0.005,0,0.01,0.001,0.015,0.001c0.001,0,0.002,0,0.003,0s0.002,0,0.003,0c0.004,0,0.008-0.001,0.013-0.001
		c0.365-0.001,0.721-0.039,1.074-0.094c0.071-0.011,0.141-0.023,0.211-0.037c0.739-0.139,1.44-0.393,2.087-0.755
		c0.033-0.018,0.065-0.037,0.098-0.056c0.422-0.245,0.817-0.535,1.182-0.868c0.108-0.098,0.218-0.195,0.318-0.298
		c0.058-0.06,0.111-0.125,0.166-0.187c0.12-0.133,0.237-0.268,0.346-0.408c0.019-0.024,0.04-0.045,0.058-0.069l28.526-37.878
		l18.528,17.099L211.372,156.747z"/>
</g>
</svg>
