<?xml version="1.0" encoding="utf-8"?>
<!-- Generator: Adobe Illustrator 17.0.0, SVG Export Plug-In . SVG Version: 6.00 Build 0)  -->
<!DOCTYPE svg PUBLIC "-//W3C//DTD SVG 1.1//EN" "http://www.w3.org/Graphics/SVG/1.1/DTD/svg11.dtd">
<svg version="1.1" id="Capa_1" xmlns="http://www.w3.org/2000/svg" xmlns:xlink="http://www.w3.org/1999/xlink" x="0px" y="0px"
	 width="300px" height="300px" viewBox="0 0 300 300" enable-background="new 0 0 300 300" xml:space="preserve">
<g>
	<g>
		<path fill="#FFFFFF" d="M154.085,300.551l-7.013-8.766c-5.475-6.843-133.629-168.515-95.009-248.868
			C65.909,14.109,98.395-0.498,148.621-0.498c50.782,0,83.916,14.911,98.481,44.32c39.955,80.671-81.043,241.013-86.213,247.801
			L154.085,300.551z M148.621,17.03c-42.908,0-70.077,11.263-80.758,33.476c-13.697,28.489-2.331,76.957,32.869,140.161
			c19.7,35.368,41.944,66.291,53.005,81.021c10.47-14.698,31.245-45.221,49.43-80.16c32.698-62.817,42.457-111.205,28.224-139.931
			C220.027,28.66,192.18,17.03,148.621,17.03z"/>
	</g>
	<g>
		<path fill="#FFFFFF" d="M150.827,169.484c-23.571,0-42.748-19.177-42.748-42.748s19.177-42.747,42.748-42.747
			s42.748,19.176,42.748,42.747S174.397,169.484,150.827,169.484z M150.827,101.517c-13.905,0-25.22,11.313-25.22,25.219
			c0,13.907,11.315,25.22,25.22,25.22c13.905,0,25.22-11.313,25.22-25.22C176.046,112.831,164.732,101.517,150.827,101.517z"/>
	</g>
</g>
</svg>
