<svg xmlns="http://www.w3.org/2000/svg" xmlns:xlink="http://www.w3.org/1999/xlink" viewBox="0 0 49.554 51.215">
  <defs>
    <style>
      .cls-1 {
        fill: #006772;
        fill-rule: evenodd;
      }

      .cls-2 {
        filter: url(#Path_104);
      }
    </style>
    <filter id="Path_104" x="0" y="0" width="49.554" height="51.215" filterUnits="userSpaceOnUse">
      <feOffset dy="3" input="SourceAlpha"/>
      <feGaussianBlur stdDeviation="3" result="blur"/>
      <feFlood flood-opacity="0.2"/>
      <feComposite operator="in" in2="blur"/>
      <feComposite in="SourceGraphic"/>
    </filter>
  </defs>
  <g class="cls-2" transform="matrix(1, 0, 0, 1, 0, 0)">
    <path id="Path_104-2" data-name="Path 104" class="cls-1" d="M275.569,20.759a4.152,4.152,0,1,0-4.152-4.152A4.164,4.164,0,0,0,275.569,20.759ZM267.058,7.473a11.708,11.708,0,0,1,4.982-2.7L273.7,0h4.152l1.661,4.775a14.5,14.5,0,0,1,4.982,2.7l4.982-1.038,2.076,3.737-3.321,3.737a11.837,11.837,0,0,1,.208,2.7c0,.83-.208,1.868-.208,2.7l3.321,3.737-2.076,3.737L284.5,25.741a11.707,11.707,0,0,1-4.982,2.7l-1.661,4.775H273.7L272.04,28.44a14.5,14.5,0,0,1-4.982-2.7l-4.982,1.038L260,23.043l3.321-3.737a11.834,11.834,0,0,1-.208-2.7c0-.83.208-1.868.208-2.7L260,10.172l2.076-3.737Z" transform="translate(-251 6)"/>
  </g>
</svg>
